<?xml version="1.0" standalone="no"?>
<!DOCTYPE svg PUBLIC "-//W3C//DTD SVG 1.1//EN" "http://www.w3.org/Graphics/SVG/1.1/DTD/svg11.dtd">
<svg width="58mm" height="36mm" viewBox="-2 -18 58 36" xmlns="http://www.w3.org/2000/svg" version="1.1">
<title>OpenSCAD Model</title>
<path d="
M 26,-17.7 L 24.125,-17.7 L 24.125,-9 L -0.125,-9 L -0.125,-17.7 L -2,-17.7
 L -2,-1 L 26,-1 z
M 56,-17.7 L 54.125,-17.7 L 54.125,-9 L 29.875,-9 L 29.875,-17.7 L 28,-17.7
 L 28,-1 L 56,-1 z
M -0.125,9 L 24.125,9 L 24.125,17.7 L 26,17.7 L 26,1 L -2,1
 L -2,17.7 L -0.125,17.7 z
M 29.875,9 L 54.125,9 L 54.125,17.7 L 56,17.7 L 56,1 L 28,1
 L 28,17.7 L 29.875,17.7 z
" stroke="black" fill="lightgray" stroke-width="0.5"/>
</svg>
