<?xml version="1.0" standalone="no"?>
<!DOCTYPE svg PUBLIC "-//W3C//DTD SVG 1.1//EN" "http://www.w3.org/Graphics/SVG/1.1/DTD/svg11.dtd">
<svg width="221mm" height="135mm" viewBox="2 -137 221 135" xmlns="http://www.w3.org/2000/svg" version="1.1">
<title>OpenSCAD Model</title>
<path d="
M 222.4,-136.4 L 2.59999,-136.4 L 2.59999,-2.59999 L 110.25,-2.59999 L 110.25,-5.65685 L 110.36,-6.64012
 L 110.68,-7.52716 L 111.177,-8.23111 L 111.805,-8.68307 L 112.5,-8.83882 L 113.195,-8.68307 L 113.823,-8.23111
 L 114.32,-7.52716 L 114.64,-6.64012 L 114.75,-5.65685 L 114.75,-2.59999 L 222.4,-2.59999 z
M 5.76355,-131.644 L 5.45001,-131.774 L 5.18077,-131.981 L 4.97418,-132.25 L 4.8443,-132.564 L 4.8,-132.9
 L 4.8443,-133.236 L 4.97418,-133.55 L 5.18077,-133.819 L 5.45001,-134.026 L 5.76355,-134.156 L 6.10001,-134.2
 L 6.43648,-134.156 L 6.75,-134.026 L 7.01924,-133.819 L 7.22585,-133.55 L 7.35571,-133.236 L 7.40001,-132.9
 L 7.35571,-132.564 L 7.22585,-132.25 L 7.01924,-131.981 L 6.75,-131.774 L 6.43648,-131.644 L 6.10001,-131.6
 z
M 218.564,-131.644 L 218.25,-131.774 L 217.981,-131.981 L 217.774,-132.25 L 217.644,-132.564 L 217.6,-132.9
 L 217.644,-133.236 L 217.774,-133.55 L 217.981,-133.819 L 218.25,-134.026 L 218.564,-134.156 L 218.9,-134.2
 L 219.236,-134.156 L 219.55,-134.026 L 219.819,-133.819 L 220.026,-133.55 L 220.156,-133.236 L 220.2,-132.9
 L 220.156,-132.564 L 220.026,-132.25 L 219.819,-131.981 L 219.55,-131.774 L 219.236,-131.644 L 218.9,-131.6
 z
M 43.9,-92.4948 L 42.875,-92.9194 L 41.9948,-93.5948 L 41.3194,-94.475 L 40.8948,-95.5 L 40.75,-96.6
 L 40.8948,-97.7 L 41.3194,-98.725 L 42.531,-100.331 L 43.3096,-104.703 L 43.4845,-105.125 L 43.7626,-105.487
 L 44.125,-105.766 L 44.5471,-105.94 L 45,-106 L 45.4529,-105.94 L 45.875,-105.766 L 46.2374,-105.487
 L 46.5155,-105.125 L 46.6904,-104.703 L 47.469,-100.331 L 48.6806,-98.725 L 49.1052,-97.7 L 49.25,-96.6
 L 49.1052,-95.5 L 48.6806,-94.475 L 48.0052,-93.5948 L 47.125,-92.9194 L 46.1,-92.4948 L 45,-92.35
 z
M 178.9,-92.4948 L 177.875,-92.9194 L 176.995,-93.5948 L 176.319,-94.475 L 175.895,-95.5 L 175.75,-96.6
 L 175.895,-97.7 L 176.319,-98.725 L 177.531,-100.331 L 178.31,-104.703 L 178.484,-105.125 L 178.763,-105.487
 L 179.125,-105.766 L 179.547,-105.94 L 180,-106 L 180.453,-105.94 L 180.875,-105.766 L 181.237,-105.487
 L 181.516,-105.125 L 181.69,-104.703 L 182.469,-100.331 L 183.681,-98.725 L 184.105,-97.7 L 184.25,-96.6
 L 184.105,-95.5 L 183.681,-94.475 L 183.005,-93.5948 L 182.125,-92.9194 L 181.1,-92.4948 L 180,-92.35
 z
M 43.75,-27.25 L 43.75,-42.25 L 46.25,-42.25 L 46.25,-27.25 z
M 178.75,-27.25 L 178.75,-42.25 L 181.25,-42.25 L 181.25,-27.25 z
M 5.76355,-4.8443 L 5.45001,-4.97418 L 5.18077,-5.18077 L 4.97418,-5.45001 L 4.8443,-5.76355 L 4.8,-6.10001
 L 4.8443,-6.43648 L 4.97418,-6.75 L 5.18077,-7.01924 L 5.45001,-7.22585 L 5.76355,-7.35571 L 6.10001,-7.40001
 L 6.43648,-7.35571 L 6.75,-7.22585 L 7.01924,-7.01924 L 7.22585,-6.75 L 7.35571,-6.43648 L 7.40001,-6.10001
 L 7.35571,-5.76355 L 7.22585,-5.45001 L 7.01924,-5.18077 L 6.75,-4.97418 L 6.43648,-4.8443 L 6.10001,-4.8
 z
M 218.564,-4.8443 L 218.25,-4.97418 L 217.981,-5.18077 L 217.774,-5.45001 L 217.644,-5.76355 L 217.6,-6.10001
 L 217.644,-6.43648 L 217.774,-6.75 L 217.981,-7.01924 L 218.25,-7.22585 L 218.564,-7.35571 L 218.9,-7.40001
 L 219.236,-7.35571 L 219.55,-7.22585 L 219.819,-7.01924 L 220.026,-6.75 L 220.156,-6.43648 L 220.2,-6.10001
 L 220.156,-5.76355 L 220.026,-5.45001 L 219.819,-5.18077 L 219.55,-4.97418 L 219.236,-4.8443 L 218.9,-4.8
 z
" stroke="black" fill="lightgray" stroke-width="0.5"/>
</svg>
