<?xml version="1.0" standalone="no"?>
<!DOCTYPE svg PUBLIC "-//W3C//DTD SVG 1.1//EN" "http://www.w3.org/Graphics/SVG/1.1/DTD/svg11.dtd">
<svg width="274mm" height="122mm" viewBox="-24 -98 274 122" xmlns="http://www.w3.org/2000/svg" version="1.1">
<title>OpenSCAD Model</title>
<path d="
M 250,-82 L 249,-82 L 249,-84.9 L 247,-84.9 L 247,-87.4 L 249,-87.4
 L 249,-90.9 L 247,-90.9 L 247,-96.4 L 249,-96.4 L 249,-97.65 L 227,-97.65
 L 227,-96.4 L 229,-96.4 L 229,-90.9 L 227,-90.9 L 227,-87.4 L 229,-87.4
 L 229,-84.9 L 227,-84.9 L 227,-82 L 226,-82 L 226,-58 L 250,-58
 z
M 225,-82 L 224,-82 L 224,-84.9 L 222,-84.9 L 222,-87.4 L 224,-87.4
 L 224,-90.9 L 222,-90.9 L 222,-96.4 L 224,-96.4 L 224,-97.65 L 202,-97.65
 L 202,-96.4 L 204,-96.4 L 204,-90.9 L 202,-90.9 L 202,-87.4 L 204,-87.4
 L 204,-84.9 L 202,-84.9 L 202,-82 L 201,-82 L 201,-58 L 225,-58
 z
M 0,-82 L -1,-82 L -0.999985,-84.9 L -3,-84.9 L -2.99998,-87.4 L -0.999985,-87.4
 L -0.999985,-90.9 L -2.99998,-90.9 L -2.99998,-96.4 L -0.999985,-96.4 L -0.999985,-97.65 L -23,-97.65
 L -23,-96.4 L -21,-96.4 L -21,-90.9 L -23,-90.9 L -23,-87.4 L -21,-87.4
 L -21,-84.9 L -23,-84.9 L -23,-82 L -24,-82 L -24,-58 L 0,-58
 z
M 200,-82 L 199,-82 L 199,-84.9 L 197,-84.9 L 197,-87.4 L 199,-87.4
 L 199,-90.9 L 197,-90.9 L 197,-96.4 L 199,-96.4 L 199,-97.65 L 177,-97.65
 L 177,-96.4 L 179,-96.4 L 179,-90.9 L 177,-90.9 L 177,-87.4 L 179,-87.4
 L 179,-84.9 L 177,-84.9 L 177,-82 L 176,-82 L 176,-58 L 200,-58
 z
M 175,-82 L 174,-82 L 174,-84.9 L 172,-84.9 L 172,-87.4 L 174,-87.4
 L 174,-90.9 L 172,-90.9 L 172,-96.4 L 174,-96.4 L 174,-97.65 L 152,-97.65
 L 152,-96.4 L 154,-96.4 L 154,-90.9 L 152,-90.9 L 152,-87.4 L 154,-87.4
 L 154,-84.9 L 152,-84.9 L 152,-82 L 151,-82 L 151,-58 L 175,-58
 z
M 25,-82 L 24,-82 L 24,-84.9 L 22,-84.9 L 22,-87.4 L 24,-87.4
 L 24,-90.9 L 22,-90.9 L 22,-96.4 L 24,-96.4 L 24,-97.65 L 2,-97.65
 L 2,-96.4 L 4,-96.4 L 4,-90.9 L 2,-90.9 L 2,-87.4 L 4,-87.4
 L 4,-84.9 L 2,-84.9 L 2,-82 L 1,-82 L 1,-58 L 25,-58
 z
M 150,-82 L 149,-82 L 149,-84.9 L 147,-84.9 L 147,-87.4 L 149,-87.4
 L 149,-90.9 L 147,-90.9 L 147,-96.4 L 149,-96.4 L 149,-97.65 L 127,-97.65
 L 127,-96.4 L 129,-96.4 L 129,-90.9 L 127,-90.9 L 127,-87.4 L 129,-87.4
 L 129,-84.9 L 127,-84.9 L 127,-82 L 126,-82 L 126,-58 L 150,-58
 z
M 125,-82 L 124,-82 L 124,-84.9 L 122,-84.9 L 122,-87.4 L 124,-87.4
 L 124,-90.9 L 122,-90.9 L 122,-96.4 L 124,-96.4 L 124,-97.65 L 102,-97.65
 L 102,-96.4 L 104,-96.4 L 104,-90.9 L 102,-90.9 L 102,-87.4 L 104,-87.4
 L 104,-84.9 L 102,-84.9 L 102,-82 L 101,-82 L 101,-58 L 125,-58
 z
M 50,-82 L 49,-82 L 49,-84.9 L 47,-84.9 L 47,-87.4 L 49,-87.4
 L 49,-90.9 L 47,-90.9 L 47,-96.4 L 49,-96.4 L 49,-97.65 L 27,-97.65
 L 27,-96.4 L 29,-96.4 L 29,-90.9 L 27,-90.9 L 27,-87.4 L 29,-87.4
 L 29,-84.9 L 27,-84.9 L 27,-82 L 26,-82 L 26,-58 L 50,-58
 z
M 100,-82 L 99,-82 L 99,-84.9 L 97,-84.9 L 97,-87.4 L 99,-87.4
 L 99,-90.9 L 97,-90.9 L 97,-96.4 L 99,-96.4 L 99,-97.65 L 77,-97.65
 L 77,-96.4 L 79,-96.4 L 79,-90.9 L 77,-90.9 L 77,-87.4 L 79,-87.4
 L 79,-84.9 L 77,-84.9 L 77,-82 L 76,-82 L 76,-58 L 100,-58
 z
M 75,-82 L 74,-82 L 74,-84.9 L 72,-84.9 L 72,-87.4 L 74,-87.4
 L 74,-90.9 L 72,-90.9 L 72,-96.4 L 74,-96.4 L 74,-97.65 L 52,-97.65
 L 52,-96.4 L 54,-96.4 L 54,-90.9 L 52,-90.9 L 52,-87.4 L 54,-87.4
 L 54,-84.9 L 52,-84.9 L 52,-82 L 51,-82 L 51,-58 L 75,-58
 z
M 75,-41 L 74,-41 L 74,-43.9 L 72,-43.9 L 72,-46.4 L 74,-46.4
 L 74,-49.9 L 72,-49.9 L 72,-55.4 L 74,-55.4 L 74,-56.65 L 52,-56.65
 L 52,-55.4 L 54,-55.4 L 54,-49.9 L 52,-49.9 L 52,-46.4 L 54,-46.4
 L 54,-43.9 L 52,-43.9 L 52,-41 L 51,-41 L 51,-17 L 75,-17
 z
M 100,-41 L 99,-41 L 99,-43.9 L 97,-43.9 L 97,-46.4 L 99,-46.4
 L 99,-49.9 L 97,-49.9 L 97,-55.4 L 99,-55.4 L 99,-56.65 L 77,-56.65
 L 77,-55.4 L 79,-55.4 L 79,-49.9 L 77,-49.9 L 77,-46.4 L 79,-46.4
 L 79,-43.9 L 77,-43.9 L 77,-41 L 76,-41 L 76,-17 L 100,-17
 z
M 125,-41 L 124,-41 L 124,-43.9 L 122,-43.9 L 122,-46.4 L 124,-46.4
 L 124,-49.9 L 122,-49.9 L 122,-55.4 L 124,-55.4 L 124,-56.65 L 102,-56.65
 L 102,-55.4 L 104,-55.4 L 104,-49.9 L 102,-49.9 L 102,-46.4 L 104,-46.4
 L 104,-43.9 L 102,-43.9 L 102,-41 L 101,-41 L 101,-17 L 125,-17
 z
M 50,-41 L 49,-41 L 49,-43.9 L 47,-43.9 L 47,-46.4 L 49,-46.4
 L 49,-49.9 L 47,-49.9 L 47,-55.4 L 49,-55.4 L 49,-56.65 L 27,-56.65
 L 27,-55.4 L 29,-55.4 L 29,-49.9 L 27,-49.9 L 27,-46.4 L 29,-46.4
 L 29,-43.9 L 27,-43.9 L 27,-41 L 26,-41 L 26,-17 L 50,-17
 z
M 150,-41 L 149,-41 L 149,-43.9 L 147,-43.9 L 147,-46.4 L 149,-46.4
 L 149,-49.9 L 147,-49.9 L 147,-55.4 L 149,-55.4 L 149,-56.65 L 127,-56.65
 L 127,-55.4 L 129,-55.4 L 129,-49.9 L 127,-49.9 L 127,-46.4 L 129,-46.4
 L 129,-43.9 L 127,-43.9 L 127,-41 L 126,-41 L 126,-17 L 150,-17
 z
M 175,-41 L 174,-41 L 174,-43.9 L 172,-43.9 L 172,-46.4 L 174,-46.4
 L 174,-49.9 L 172,-49.9 L 172,-55.4 L 174,-55.4 L 174,-56.65 L 152,-56.65
 L 152,-55.4 L 154,-55.4 L 154,-49.9 L 152,-49.9 L 152,-46.4 L 154,-46.4
 L 154,-43.9 L 152,-43.9 L 152,-41 L 151,-41 L 151,-17 L 175,-17
 z
M 25,-41 L 24,-41 L 24,-43.9 L 22,-43.9 L 22,-46.4 L 24,-46.4
 L 24,-49.9 L 22,-49.9 L 22,-55.4 L 24,-55.4 L 24,-56.65 L 2,-56.65
 L 2,-55.4 L 4,-55.4 L 4,-49.9 L 2,-49.9 L 2,-46.4 L 4,-46.4
 L 4,-43.9 L 2,-43.9 L 2,-41 L 1,-41 L 1,-17 L 25,-17
 z
M 200,-41 L 199,-41 L 199,-43.9 L 197,-43.9 L 197,-46.4 L 199,-46.4
 L 199,-49.9 L 197,-49.9 L 197,-55.4 L 199,-55.4 L 199,-56.65 L 177,-56.65
 L 177,-55.4 L 179,-55.4 L 179,-49.9 L 177,-49.9 L 177,-46.4 L 179,-46.4
 L 179,-43.9 L 177,-43.9 L 177,-41 L 176,-41 L 176,-17 L 200,-17
 z
M 225,-41 L 224,-41 L 224,-43.9 L 222,-43.9 L 222,-46.4 L 224,-46.4
 L 224,-49.9 L 222,-49.9 L 222,-55.4 L 224,-55.4 L 224,-56.65 L 202,-56.65
 L 202,-55.4 L 204,-55.4 L 204,-49.9 L 202,-49.9 L 202,-46.4 L 204,-46.4
 L 204,-43.9 L 202,-43.9 L 202,-41 L 201,-41 L 201,-17 L 225,-17
 z
M 0,-41 L -1,-41 L -0.999985,-43.9 L -3,-43.9 L -2.99998,-46.4 L -0.999985,-46.4
 L -0.999985,-49.9 L -2.99998,-49.9 L -2.99998,-55.4 L -0.999985,-55.4 L -0.999985,-56.65 L -23,-56.65
 L -23,-55.4 L -21,-55.4 L -21,-49.9 L -23,-49.9 L -23,-46.4 L -21,-46.4
 L -21,-43.9 L -23,-43.9 L -23,-41 L -24,-41 L -24,-17 L 0,-17
 z
M 250,-41 L 249,-41 L 249,-43.9 L 247,-43.9 L 247,-46.4 L 249,-46.4
 L 249,-49.9 L 247,-49.9 L 247,-55.4 L 249,-55.4 L 249,-56.65 L 227,-56.65
 L 227,-55.4 L 229,-55.4 L 229,-49.9 L 227,-49.9 L 227,-46.4 L 229,-46.4
 L 229,-43.9 L 227,-43.9 L 227,-41 L 226,-41 L 226,-17 L 250,-17
 z
M 100,-0 L 99,-0 L 99,-2.89999 L 97,-2.89999 L 97,-5.39999 L 99,-5.39999
 L 99,-8.89999 L 97,-8.89999 L 97,-14.4 L 99,-14.4 L 99,-15.65 L 77,-15.65
 L 77,-14.4 L 79,-14.4 L 79,-8.89999 L 77,-8.89999 L 77,-5.39999 L 79,-5.39999
 L 79,-2.89999 L 77,-2.89999 L 77,-0 L 76,-0 L 76,24 L 100,24
 z
M 75,-0 L 74,-0 L 74,-2.89999 L 72,-2.89999 L 72,-5.39999 L 74,-5.39999
 L 74,-8.89999 L 72,-8.89999 L 72,-14.4 L 74,-14.4 L 74,-15.65 L 52,-15.65
 L 52,-14.4 L 54,-14.4 L 54,-8.89999 L 52,-8.89999 L 52,-5.39999 L 54,-5.39999
 L 54,-2.89999 L 52,-2.89999 L 52,-0 L 51,-0 L 51,24 L 75,24
 z
M 125,-0 L 124,-0 L 124,-2.89999 L 122,-2.89999 L 122,-5.39999 L 124,-5.39999
 L 124,-8.89999 L 122,-8.89999 L 122,-14.4 L 124,-14.4 L 124,-15.65 L 102,-15.65
 L 102,-14.4 L 104,-14.4 L 104,-8.89999 L 102,-8.89999 L 102,-5.39999 L 104,-5.39999
 L 104,-2.89999 L 102,-2.89999 L 102,-0 L 101,-0 L 101,24 L 125,24
 z
M 150,-0 L 149,-0 L 149,-2.89999 L 147,-2.89999 L 147,-5.39999 L 149,-5.39999
 L 149,-8.89999 L 147,-8.89999 L 147,-14.4 L 149,-14.4 L 149,-15.65 L 127,-15.65
 L 127,-14.4 L 129,-14.4 L 129,-8.89999 L 127,-8.89999 L 127,-5.39999 L 129,-5.39999
 L 129,-2.89999 L 127,-2.89999 L 127,-0 L 126,-0 L 126,24 L 150,24
 z
M 50,-0 L 49,-0 L 49,-2.89999 L 47,-2.89999 L 47,-5.39999 L 49,-5.39999
 L 49,-8.89999 L 47,-8.89999 L 47,-14.4 L 49,-14.4 L 49,-15.65 L 27,-15.65
 L 27,-14.4 L 29,-14.4 L 29,-8.89999 L 27,-8.89999 L 27,-5.39999 L 29,-5.39999
 L 29,-2.89999 L 27,-2.89999 L 27,-0 L 26,-0 L 26,24 L 50,24
 z
M 175,-0 L 174,-0 L 174,-2.89999 L 172,-2.89999 L 172,-5.39999 L 174,-5.39999
 L 174,-8.89999 L 172,-8.89999 L 172,-14.4 L 174,-14.4 L 174,-15.65 L 152,-15.65
 L 152,-14.4 L 154,-14.4 L 154,-8.89999 L 152,-8.89999 L 152,-5.39999 L 154,-5.39999
 L 154,-2.89999 L 152,-2.89999 L 152,-0 L 151,-0 L 151,24 L 175,24
 z
M 200,-0 L 199,-0 L 199,-2.89999 L 197,-2.89999 L 197,-5.39999 L 199,-5.39999
 L 199,-8.89999 L 197,-8.89999 L 197,-14.4 L 199,-14.4 L 199,-15.65 L 177,-15.65
 L 177,-14.4 L 179,-14.4 L 179,-8.89999 L 177,-8.89999 L 177,-5.39999 L 179,-5.39999
 L 179,-2.89999 L 177,-2.89999 L 177,-0 L 176,-0 L 176,24 L 200,24
 z
M 25,-0 L 24,-0 L 24,-2.89999 L 22,-2.89999 L 22,-5.39999 L 24,-5.39999
 L 24,-8.89999 L 22,-8.89999 L 22,-14.4 L 24,-14.4 L 24,-15.65 L 2,-15.65
 L 2,-14.4 L 4,-14.4 L 4,-8.89999 L 2,-8.89999 L 2,-5.39999 L 4,-5.39999
 L 4,-2.89999 L 2,-2.89999 L 2,-0 L 1,-0 L 1,24 L 25,24
 z
M 225,-0 L 224,-0 L 224,-2.89999 L 222,-2.89999 L 222,-5.39999 L 224,-5.39999
 L 224,-8.89999 L 222,-8.89999 L 222,-14.4 L 224,-14.4 L 224,-15.65 L 202,-15.65
 L 202,-14.4 L 204,-14.4 L 204,-8.89999 L 202,-8.89999 L 202,-5.39999 L 204,-5.39999
 L 204,-2.89999 L 202,-2.89999 L 202,-0 L 201,-0 L 201,24 L 225,24
 z
M 250,-0 L 249,-0 L 249,-2.89999 L 247,-2.89999 L 247,-5.39999 L 249,-5.39999
 L 249,-8.89999 L 247,-8.89999 L 247,-14.4 L 249,-14.4 L 249,-15.65 L 227,-15.65
 L 227,-14.4 L 229,-14.4 L 229,-8.89999 L 227,-8.89999 L 227,-5.39999 L 229,-5.39999
 L 229,-2.89999 L 227,-2.89999 L 227,-0 L 226,-0 L 226,24 L 250,24
 z
M 0,-0 L -1,-0 L -0.999985,-2.89999 L -3,-2.89999 L -2.99998,-5.39999 L -0.999985,-5.39999
 L -0.999985,-8.89999 L -2.99998,-8.89999 L -2.99998,-14.4 L -0.999985,-14.4 L -0.999985,-15.65 L -23,-15.65
 L -23,-14.4 L -21,-14.4 L -21,-8.89999 L -23,-8.89999 L -23,-5.39999 L -21,-5.39999
 L -21,-2.89999 L -23,-2.89999 L -23,-0 L -24,-0 L -24,24 L 0,24
 z
" stroke="black" fill="lightgray" stroke-width="0.5"/>
</svg>
