<?xml version="1.0" standalone="no"?>
<!DOCTYPE svg PUBLIC "-//W3C//DTD SVG 1.1//EN" "http://www.w3.org/Graphics/SVG/1.1/DTD/svg11.dtd">
<svg width="256mm" height="40mm" viewBox="-24 -16 256 40" xmlns="http://www.w3.org/2000/svg" version="1.1">
<title>OpenSCAD Model</title>
<path d="
M 0,-0 L -1,-0 L -0.999985,-2.89999 L -3,-2.89999 L -2.99998,-5.39999 L -0.999985,-5.39999
 L -0.999985,-8.89999 L -2.99998,-8.89999 L -2.99998,-14.4 L -0.999985,-14.4 L -0.999985,-15.65 L -23,-15.65
 L -23,-14.4 L -21,-14.4 L -21,-8.89999 L -23,-8.89999 L -23,-5.39999 L -21,-5.39999
 L -21,-2.89999 L -23,-2.89999 L -23,-0 L -24,-0 L -24,24 L 0,24
 z
M 29,-0 L 28,-0 L 28,-2.89999 L 26,-2.89999 L 26,-5.39999 L 28,-5.39999
 L 28,-8.89999 L 26,-8.89999 L 26,-14.4 L 28,-14.4 L 28,-15.65 L 6,-15.65
 L 6,-14.4 L 8,-14.4 L 8,-8.89999 L 6,-8.89999 L 6,-5.39999 L 8,-5.39999
 L 8,-2.89999 L 6,-2.89999 L 6,-0 L 5,-0 L 5,24 L 29,24
 z
M 58,-0 L 57,-0 L 57,-2.89999 L 55,-2.89999 L 55,-5.39999 L 57,-5.39999
 L 57,-8.89999 L 55,-8.89999 L 55,-14.4 L 57,-14.4 L 57,-15.65 L 35,-15.65
 L 35,-14.4 L 37,-14.4 L 37,-8.89999 L 35,-8.89999 L 35,-5.39999 L 37,-5.39999
 L 37,-2.89999 L 35,-2.89999 L 35,-0 L 34,-0 L 34,24 L 58,24
 z
M 87,-0 L 86,-0 L 86,-2.89999 L 84,-2.89999 L 84,-5.39999 L 86,-5.39999
 L 86,-8.89999 L 84,-8.89999 L 84,-14.4 L 86,-14.4 L 86,-15.65 L 64,-15.65
 L 64,-14.4 L 66,-14.4 L 66,-8.89999 L 64,-8.89999 L 64,-5.39999 L 66,-5.39999
 L 66,-2.89999 L 64,-2.89999 L 64,-0 L 63,-0 L 63,24 L 87,24
 z
M 116,-0 L 115,-0 L 115,-2.89999 L 113,-2.89999 L 113,-5.39999 L 115,-5.39999
 L 115,-8.89999 L 113,-8.89999 L 113,-14.4 L 115,-14.4 L 115,-15.65 L 93,-15.65
 L 93,-14.4 L 95,-14.4 L 95,-8.89999 L 93,-8.89999 L 93,-5.39999 L 95,-5.39999
 L 95,-2.89999 L 93,-2.89999 L 93,-0 L 92,-0 L 92,24 L 116,24
 z
M 145,-0 L 144,-0 L 144,-2.89999 L 142,-2.89999 L 142,-5.39999 L 144,-5.39999
 L 144,-8.89999 L 142,-8.89999 L 142,-14.4 L 144,-14.4 L 144,-15.65 L 122,-15.65
 L 122,-14.4 L 124,-14.4 L 124,-8.89999 L 122,-8.89999 L 122,-5.39999 L 124,-5.39999
 L 124,-2.89999 L 122,-2.89999 L 122,-0 L 121,-0 L 121,24 L 145,24
 z
M 174,-0 L 173,-0 L 173,-2.89999 L 171,-2.89999 L 171,-5.39999 L 173,-5.39999
 L 173,-8.89999 L 171,-8.89999 L 171,-14.4 L 173,-14.4 L 173,-15.65 L 151,-15.65
 L 151,-14.4 L 153,-14.4 L 153,-8.89999 L 151,-8.89999 L 151,-5.39999 L 153,-5.39999
 L 153,-2.89999 L 151,-2.89999 L 151,-0 L 150,-0 L 150,24 L 174,24
 z
M 203,-0 L 202,-0 L 202,-2.89999 L 200,-2.89999 L 200,-5.39999 L 202,-5.39999
 L 202,-8.89999 L 200,-8.89999 L 200,-14.4 L 202,-14.4 L 202,-15.65 L 180,-15.65
 L 180,-14.4 L 182,-14.4 L 182,-8.89999 L 180,-8.89999 L 180,-5.39999 L 182,-5.39999
 L 182,-2.89999 L 180,-2.89999 L 180,-0 L 179,-0 L 179,24 L 203,24
 z
M 232,-0 L 231,-0 L 231,-2.89999 L 229,-2.89999 L 229,-5.39999 L 231,-5.39999
 L 231,-8.89999 L 229,-8.89999 L 229,-14.4 L 231,-14.4 L 231,-15.65 L 209,-15.65
 L 209,-14.4 L 211,-14.4 L 211,-8.89999 L 209,-8.89999 L 209,-5.39999 L 211,-5.39999
 L 211,-2.89999 L 209,-2.89999 L 209,-0 L 208,-0 L 208,24 L 232,24
 z
" stroke="black" fill="lightgray" stroke-width="0.5"/>
</svg>
