<?xml version="1.0" standalone="no"?>
<!DOCTYPE svg PUBLIC "-//W3C//DTD SVG 1.1//EN" "http://www.w3.org/Graphics/SVG/1.1/DTD/svg11.dtd">
<svg width="207mm" height="121mm" viewBox="9 -130 207 121" xmlns="http://www.w3.org/2000/svg" version="1.1">
<title>OpenSCAD Model</title>
<path d="
M 29.45,-12 L 30.3,-13.6433 L 30.3,-12 L 47,-12 L 77,-70 L 77,-98
 L 60.3,-98 L 59.45,-96.3567 L 59.45,-98 L 24.6,-129.4 L 9.59999,-129.4 L 9.59999,-9.59999
 L 24.6,-9.59999 z
M 69,-71.875 L 60.3,-71.875 L 60.3,-70 L 60.7802,-70 L 60.2629,-69 L 45.3,-69
 L 45.3,-67.125 L 54,-67.125 L 54,-42.875 L 45.3,-42.875 L 45.3,-41 L 45.7802,-41
 L 45.2629,-40 L 30.3,-40 L 30.3,-38.125 L 39,-38.125 L 39,-13.875 L 20.75,-13.875
 L 20.75,-38.125 L 29.45,-38.125 L 29.45,-40 L 28.9698,-40 L 29.4871,-41 L 44.45,-41
 L 44.45,-42.875 L 35.75,-42.875 L 35.75,-67.125 L 44.45,-67.125 L 44.45,-69 L 43.9698,-69
 L 44.4871,-70 L 59.45,-70 L 59.45,-71.875 L 50.75,-71.875 L 50.75,-96.125 L 69,-96.125
 z
M 215.4,-129.4 L 200.4,-129.4 L 197.3,-127 L 196.45,-125.357 L 196.45,-127 L 179.75,-127
 L 134.75,-40 L 134.75,-12 L 151.45,-12 L 152.3,-13.6433 L 152.3,-12 L 200.4,-9.59999
 L 215.4,-9.59999 z
M 206,-100.875 L 197.3,-100.875 L 197.3,-99 L 197.78,-99 L 197.263,-98 L 182.3,-98
 L 182.3,-96.125 L 191,-96.125 L 191,-71.875 L 182.3,-71.875 L 182.3,-70 L 182.78,-70
 L 182.263,-69 L 167.3,-69 L 167.3,-67.125 L 176,-67.125 L 176,-42.875 L 167.3,-42.875
 L 167.3,-41 L 167.78,-41 L 167.263,-40 L 152.3,-40 L 152.3,-38.125 L 161,-38.125
 L 161,-13.875 L 142.75,-13.875 L 142.75,-38.125 L 151.45,-38.125 L 151.45,-40 L 150.97,-40
 L 151.487,-41 L 166.45,-41 L 166.45,-42.875 L 157.75,-42.875 L 157.75,-67.125 L 166.45,-67.125
 L 166.45,-69 L 165.97,-69 L 166.487,-70 L 181.45,-70 L 181.45,-71.875 L 172.75,-71.875
 L 172.75,-96.125 L 181.45,-96.125 L 181.45,-98 L 180.97,-98 L 181.487,-99 L 196.45,-99
 L 196.45,-100.875 L 187.75,-100.875 L 187.75,-125.125 L 206,-125.125 z
M 153,-99 L 153,-127 L 136.3,-127 L 135.45,-125.357 L 135.45,-127 L 118.75,-127
 L 73.75,-40 L 73.75,-12 L 90.45,-12 L 91.3,-13.6433 L 91.3,-12 L 108,-12
 z
M 145,-100.875 L 136.3,-100.875 L 136.3,-99 L 136.78,-99 L 136.263,-98 L 121.3,-98
 L 121.3,-96.125 L 130,-96.125 L 130,-71.875 L 121.3,-71.875 L 121.3,-70 L 121.78,-70
 L 121.263,-69 L 106.3,-69 L 106.3,-67.125 L 115,-67.125 L 115,-42.875 L 106.3,-42.875
 L 106.3,-41 L 106.78,-41 L 106.263,-40 L 91.3,-40 L 91.3,-38.125 L 100,-38.125
 L 100,-13.875 L 81.75,-13.875 L 81.75,-38.125 L 90.45,-38.125 L 90.45,-40 L 89.9698,-40
 L 90.4871,-41 L 105.45,-41 L 105.45,-42.875 L 96.75,-42.875 L 96.75,-67.125 L 105.45,-67.125
 L 105.45,-69 L 104.97,-69 L 105.487,-70 L 120.45,-70 L 120.45,-71.875 L 111.75,-71.875
 L 111.75,-96.125 L 120.45,-96.125 L 120.45,-98 L 119.97,-98 L 120.487,-99 L 135.45,-99
 L 135.45,-100.875 L 126.75,-100.875 L 126.75,-125.125 L 145,-125.125 z
" stroke="black" fill="lightgray" stroke-width="0.5"/>
</svg>
