<?xml version="1.0" encoding="utf-8"?>
<!-- Generator: Adobe Illustrator 16.0.0, SVG Export Plug-In . SVG Version: 6.00 Build 0)  -->
<!DOCTYPE svg PUBLIC "-//W3C//DTD SVG 1.1//EN" "http://www.w3.org/Graphics/SVG/1.1/DTD/svg11.dtd">
<svg version="1.1" id="Layer_1" xmlns="http://www.w3.org/2000/svg" xmlns:xlink="http://www.w3.org/1999/xlink" x="0px" y="0px"
	 width="612px" height="792px" viewBox="0 0 612 792" enable-background="new 0 0 612 792" xml:space="preserve">
<g>
	<rect x="106.497" y="74.57" fill="#FFFFFF" width="14.17" height="0.01"/>
	<polygon points="120.667,74.57 106.497,74.57 106.497,74.58 120.667,74.58 120.667,74.57 	"/>
</g>
<g>
	<rect x="147.744" y="13.846" fill="#FFFFFF" width="13.173" height="60.229"/>
	<path d="M160.417,14.346v59.229h-12.173V14.346H160.417 M161.417,13.346h-14.173v61.229h14.173V13.346L161.417,13.346z"/>
</g>
<g>
	<path fill="#FFFFFF" d="M16.287,74.07V13.85h103.88v60.22H16.287z M29.457,68.27h77.54V19.65h-77.54V68.27z"/>
	<path d="M119.667,14.35v59.22H16.787V14.35H119.667 M28.957,68.77h1h76.54h1v-1V20.15v-1h-1h-76.54h-1v1v47.62V68.77
		 M120.667,13.35H15.787v61.22h104.88V13.35L120.667,13.35z M29.957,67.77V20.15h76.54v47.62H29.957L29.957,67.77z"/>
</g>
<g>
	<rect x="15.787" y="74.57" fill="#FFFFFF" width="14.17" height="0.01"/>
	<polygon points="29.957,74.57 15.787,74.57 15.787,74.58 29.957,74.58 29.957,74.57 	"/>
</g>
<g>
	<rect x="127.132" y="13.846" fill="#FFFFFF" width="13.173" height="60.229"/>
	<path d="M139.806,14.346v59.229h-12.173V14.346H139.806 M140.806,13.346h-14.173v61.229h14.173V13.346L140.806,13.346z"/>
</g>
<path fill="#FFFFFF" stroke="#000000" stroke-miterlimit="10" d="M169.367,74.58h113.39V24.41h-113.39V74.58z M268.576,31.5v36
	h-85.04v-36H268.576z"/>
<rect x="289.957" y="24.408" fill="#FFFFFF" stroke="#000000" stroke-miterlimit="10" width="14.174" height="50.173"/>
<rect x="310.777" y="24.408" fill="#FFFFFF" stroke="#000000" stroke-miterlimit="10" width="14.173" height="50.173"/>
</svg>
