<?xml version="1.0" standalone="no"?>
<!DOCTYPE svg PUBLIC "-//W3C//DTD SVG 1.1//EN" "http://www.w3.org/Graphics/SVG/1.1/DTD/svg11.dtd">
<svg width="30mm" height="30mm" viewBox="-15 -15 30 30" xmlns="http://www.w3.org/2000/svg" version="1.1">
<title>OpenSCAD Model</title>
<path d="
M 15,-15 L -15,-15 L -15,15 L 15,15 z
M -1.09998,6.75517 L -2.125,6.3306 L -3.0052,5.6552 L -3.6806,4.77499 L -4.10518,3.74997 L -4.25,2.64999
 L -4.10518,1.55002 L -3.6806,0.524994 L -2.46899,-1.0807 L -1.69037,-5.45293 L -1.51553,-5.87498 L -1.23743,-6.23743
 L -0.874985,-6.51553 L -0.452927,-6.69037 L 0,-6.75 L 0.452927,-6.69037 L 0.875,-6.51553 L 1.23743,-6.23743
 L 1.51553,-5.87498 L 1.69037,-5.45293 L 2.46899,-1.0807 L 3.6806,0.524994 L 4.10518,1.55002 L 4.25,2.64999
 L 4.10518,3.74997 L 3.6806,4.77499 L 3.0052,5.6552 L 2.125,6.3306 L 1.09998,6.75517 L 0,6.89999
 z
M 8.25,3.37999 L 8.25,-3.37999 L 11.75,-3.37999 L 11.75,3.37999 z
M -10.3365,1.25569 L -10.65,1.12582 L -10.9192,0.919235 L -11.1258,0.649994 L -11.2557,0.336456 L -11.3,-0
 L -11.2557,-0.336456 L -11.1258,-0.649994 L -10.9192,-0.919235 L -10.65,-1.12582 L -10.3365,-1.25569 L -10,-1.29999
 L -9.66353,-1.25569 L -9.34999,-1.12582 L -9.08075,-0.919235 L -8.87416,-0.649994 L -8.74429,-0.336456 L -8.7,-0
 L -8.74429,0.336456 L -8.87416,0.649994 L -9.08075,0.919235 L -9.34999,1.12582 L -9.66353,1.25569 L -10,1.29999
 z
" stroke="black" fill="lightgray" stroke-width="0.5"/>
</svg>
