<?xml version="1.0" encoding="utf-8"?>
<!-- Generator: Adobe Illustrator 22.1.0, SVG Export Plug-In . SVG Version: 6.00 Build 0)  -->
<svg version="1.1" id="Layer_1" xmlns="http://www.w3.org/2000/svg" xmlns:xlink="http://www.w3.org/1999/xlink" x="0px" y="0px"
	 viewBox="0 0 85 90.7" style="enable-background:new 0 0 85 90.7;" xml:space="preserve">
<style type="text/css">
	.st0{fill:#D3D3D3;stroke:#000000;stroke-width:0.5;}
</style>
<path class="st0" d="M85,0H0v90.7h85V0z M39.4,64.5l-2.9-1.2L34,61.4l-1.9-2.5L30.9,56l-0.4-3.1l0.4-3.1l1.2-2.9l3.4-4.6l2.2-12.4
	l0.5-1.2l0.8-1l1-0.8l1.2-0.5l1.3-0.2l1.3,0.2l1.2,0.5l1,0.8l0.8,1l0.5,1.2l2.2,12.4l3.4,4.6l1.2,2.9l0.4,3.1L54.2,56L53,58.9
	L51,61.4l-2.5,1.9l-2.9,1.2l-3.1,0.4L39.4,64.5z M66.2,53.6V37.1h9.4v16.4H66.2z M13.2,48.9l-0.9-0.4L11.6,48L11,47.2l-0.4-0.9
	l-0.1-1l0.1-1l0.4-0.9l0.6-0.8l0.8-0.6l0.9-0.4l1-0.1l1,0.1l0.9,0.4l0.8,0.6l0.6,0.8l0.4,0.9l0.1,1l-0.1,1l-0.4,0.9L16.8,48L16,48.5
	l-0.9,0.4l-1,0.1L13.2,48.9z"/>
<title>OpenSCAD Model</title>
<path d="M58.3,20.5l-0.5-0.1l-0.5-0.2l-0.5-0.2l-0.5-0.3l-0.5-0.3l-0.5-0.4h0l-0.1,1.1h-0.9V3.1h1v5l0,2.2l0.5-0.4l0.5-0.4l0.6-0.3
	L57.5,9l0.6-0.2l0.6-0.1l0.6,0l1.2,0.1l1,0.4l0.8,0.6l0.6,0.9l0.5,1.1l0.3,1.3l0.1,1.4L63.7,16l-0.4,1.4l-0.6,1.1l-0.8,0.9L60.9,20
	l-1,0.4l-1.1,0.1L58.3,20.5z M59.7,19.5l0.8-0.4l0.7-0.6l0.6-0.8l0.5-1l0.3-1.1l0.1-1.3l-0.1-1.2l-0.2-1l-0.3-0.9l-0.5-0.7L60.9,10
	l-0.8-0.4l-1-0.1l-0.5,0l-0.5,0.1l-0.5,0.2l-0.5,0.3l-0.5,0.3L56,10.9l-0.6,0.5v6.8l0.5,0.4l0.5,0.3l0.5,0.3l0.5,0.2l0.5,0.1
	l0.4,0.1l0.4,0L59.7,19.5z M78.5,16l-0.1-9.9V4.4h1.1l0,1.7L79.3,16H78.5z M18.8,20.5l-0.9-0.2L17.2,20l-0.7-0.3l-0.6-0.4l-0.5-0.4
	L15,18.4l0.6-0.7l0.4,0.4l0.5,0.4l0.5,0.4l0.6,0.3l0.7,0.2l0.7,0.2l0.8,0.1l0.8-0.1l0.8-0.2L22,19l0.5-0.5l0.4-0.6l0.3-0.7l0.1-0.8
	l-0.1-0.9l-0.3-0.8L22.4,14l-0.7-0.5l-1-0.4l-1.2-0.2L18,12.8v-0.9l1.4-0.1l1.1-0.2l0.9-0.4l0.6-0.5l0.4-0.6l0.2-0.7l0.1-0.8
	l-0.1-0.7l-0.2-0.6l-0.3-0.5l-0.5-0.4l-0.6-0.3l-0.7-0.2l-0.7-0.1l-0.6,0l-0.6,0.1L18,6l-0.5,0.3l-0.5,0.3L16.6,7l-0.4,0.4l-0.6-0.7
	l0.5-0.4l0.5-0.4l0.5-0.3l0.6-0.3L18.3,5L19,4.8l0.7,0l1,0.1l0.9,0.2l0.8,0.4L22.9,6l0.5,0.7l0.3,0.8l0.1,0.9l-0.1,0.8L23.6,10
	l-0.3,0.6l-0.4,0.5l-0.5,0.4l-0.6,0.4L21,12.2v0.1l0.8,0.2l0.7,0.4l0.6,0.5l0.5,0.6l0.4,0.7l0.3,0.8l0.1,0.9l-0.1,1.1l-0.3,0.9
	l-0.5,0.8l-0.7,0.6l-0.9,0.5l-1,0.3l-1.1,0.1L18.8,20.5z M4,13v-1L13.8,8v1l-5.5,2.1l-3.1,1.2v0.1l3.1,1.2l5.5,2.1v1L4,13z
	 M34.7,25.6l-1-0.2L32.8,25l-0.7-0.5L31.6,24l-0.3-0.7l-0.1-0.8l0-0.4l0.1-0.4l0.2-0.4l0.2-0.4l0.3-0.4l0.4-0.4l0.4-0.3v-0.1
	l-0.2-0.2l-0.2-0.2l-0.2-0.2l-0.2-0.3L32,18.5l-0.1-0.3l0-0.4l0-0.4L32,17l0.2-0.3l0.2-0.3l0.2-0.3l0.2-0.2l0.2-0.2v-0.1l-0.3-0.3
	L32.5,15l-0.3-0.4L32,14.2l-0.2-0.5l-0.1-0.5l0-0.6l0.1-1l0.3-0.9l0.5-0.7l0.6-0.6L33.9,9l0.8-0.3l0.9-0.1l0.3,0l0.2,0l0.2,0
	l0.2,0.1l0.2,0.1L37,8.9l0.2,0.1H41v0.9h-2.6l0.3,0.3l0.3,0.3l0.2,0.4l0.2,0.4l0.1,0.4l0.1,0.5l0,0.5l-0.1,0.9l-0.3,0.8l-0.5,0.7
	l-0.6,0.6l-0.7,0.5l-0.8,0.3l-0.9,0.1l-0.3,0l-0.3,0l-0.3,0l-0.3-0.1l-0.3-0.1L34,16.2l-0.2-0.1l-0.2,0.2l-0.2,0.2l-0.2,0.2
	l-0.1,0.2L33,17.1l-0.1,0.3l0,0.3l0,0.3l0.1,0.3l0.2,0.3l0.3,0.2l0.4,0.2l0.5,0.1l0.7,0h2.4l1,0l0.8,0.2l0.7,0.3l0.5,0.4l0.4,0.5
	l0.2,0.6l0.1,0.7l-0.1,0.8l-0.4,0.8l-0.6,0.7l-0.8,0.6l-1,0.5l-1.2,0.3l-1.3,0.1L34.7,25.6z M36.3,15.7l0.6-0.2l0.5-0.3l0.5-0.5
	l0.4-0.6l0.2-0.7l0.1-0.8l-0.1-0.8l-0.2-0.7L38,10.6l-0.5-0.5L37,9.8l-0.6-0.2l-0.7-0.1L35,9.6l-0.6,0.2l-0.5,0.3l-0.5,0.5L33,11.2
	l-0.2,0.7l-0.1,0.8l0.1,0.8l0.2,0.7l0.4,0.6l0.5,0.5l0.5,0.3l0.6,0.2l0.7,0.1L36.3,15.7z M37,24.7l0.9-0.2l0.8-0.4l0.6-0.5l0.5-0.5
	l0.3-0.6l0.1-0.6l-0.1-0.5L39.9,21l-0.3-0.3l-0.4-0.2l-0.5-0.2l-0.6-0.1l-0.7,0h-2.4l-0.1,0l-0.2,0l-0.2,0l-0.2,0l-0.2,0l-0.2,0
	L33.7,20l-0.4,0.3l-0.3,0.3L32.6,21l-0.2,0.3l-0.1,0.4l-0.1,0.4l0,0.3l0.1,0.6l0.2,0.5l0.4,0.4l0.6,0.4l0.7,0.3l0.8,0.2l1,0.1
	L37,24.7z M44.8,20.5l-0.7-0.2L43.5,20l-0.5-0.4L42.6,19l-0.2-0.7l-0.1-0.9l0.1-1l0.4-0.8l0.7-0.7l1-0.6l1.3-0.5l1.7-0.4l2-0.3
	l0-0.7l-0.1-0.7L49.2,11l-0.3-0.6l-0.5-0.5l-0.7-0.3l-0.9-0.1l-0.6,0l-0.6,0.1L45,9.8l-0.5,0.2L44,10.3l-0.4,0.3l-0.4,0.3l-0.5-0.8
	l0.4-0.3l0.5-0.3l0.6-0.3L44.8,9l0.7-0.2l0.7-0.1L47,8.6l1,0.1L48.9,9l0.7,0.5l0.5,0.7l0.3,0.8l0.2,0.9l0.1,1v7.2h-0.9l-0.1-1.4
	h-0.1L49,19.2l-0.5,0.4l-0.6,0.3l-0.6,0.3l-0.6,0.2l-0.6,0.1l-0.6,0L44.8,20.5z M46.2,19.6l0.5-0.1l0.5-0.2l0.5-0.3l0.5-0.3l0.6-0.4
	l0.6-0.5v-3.9l-1.8,0.3l-1.5,0.3L45.1,15l-0.8,0.5L43.7,16l-0.3,0.6l-0.1,0.7l0.1,0.6l0.2,0.5l0.3,0.4l0.4,0.3l0.4,0.2l0.5,0.1
	l0.5,0L46.2,19.6z M69.9,20.4L68.8,20l-1-0.6l-0.8-0.9l-0.6-1.1L66,16.1l-0.1-1.5l0.1-1.5l0.4-1.3l0.6-1.1l0.8-0.9l0.9-0.7l1-0.4
	l1.1-0.1l1.1,0.1l1,0.3l0.8,0.6l0.6,0.8l0.5,1l0.3,1.2l0.1,1.3V14l0,0.1l0,0.1l0,0.1l0,0.1l0,0.1l0,0.1H67l0.1,1.2l0.3,1.1l0.5,0.9
	l0.6,0.8l0.8,0.6l0.9,0.4l1,0.1l0.5,0l0.5-0.1l0.5-0.1l0.4-0.2l0.4-0.2l0.4-0.2l0.4-0.3l0.4,0.8l-0.4,0.2l-0.4,0.2l-0.4,0.2L73,20.3
	l-0.5,0.1l-0.6,0.1l-0.7,0L69.9,20.4z M74.1,12.7l-0.2-1l-0.4-0.8L73,10.3l-0.6-0.4l-0.7-0.3l-0.8-0.1l-0.8,0.1l-0.8,0.3l-0.7,0.5
	L68,11l-0.5,0.8l-0.3,1L67,13.8h7.2L74.1,12.7z M78.7,20.5l-0.2-0.1l-0.2-0.1l-0.2-0.2L78,20l-0.1-0.2l0-0.3l0-0.3L78,19l0.1-0.2
	l0.2-0.2l0.2-0.1l0.2-0.1l0.2,0l0.2,0l0.2,0.1l0.2,0.1l0.2,0.2l0.1,0.2l0.1,0.2l0,0.3l0,0.3L79.8,20l-0.1,0.2l-0.2,0.2l-0.2,0.1
	l-0.2,0.1l-0.2,0L78.7,20.5z"/>
</svg>
