<?xml version="1.0" encoding="utf-8"?>
<!-- Generator: Adobe Illustrator 22.1.0, SVG Export Plug-In . SVG Version: 6.00 Build 0)  -->
<svg version="1.1" id="Layer_1" xmlns="http://www.w3.org/2000/svg" xmlns:xlink="http://www.w3.org/1999/xlink" x="0px" y="0px"
	 viewBox="0 0 159.8 394.5" style="enable-background:new 0 0 159.8 394.5;" xml:space="preserve">
<style type="text/css">
	.st0{fill:none;stroke:#FF0000;stroke-width:0.5;}
	.st1{fill:#2500FF;}
</style>
<title>OpenSCAD Model</title>
<path class="st0" d="M0.2,0.2v394h78.2V0.2H0.2z M51.3,256.6H34.8v-9.4h16.4V256.6z M51.3,300H34.8v-9.4h16.4V300z M51.3,343.4H34.8
	V334h16.4V343.4z"/>
<path class="st0" d="M81.3,0.2v394h78.2V0.2H81.3z M108.5,247.3H125v9.4h-16.4V247.3z M108.5,290.7H125v9.4h-16.4V290.7z M108.5,334
	H125v9.4h-16.4V334z"/>
<path class="st1" d="M35.4,242.7h-0.9l-0.1-1.4h-0.1l-0.4,0.4l-0.5,0.4l-0.5,0.3l-0.5,0.3l-0.6,0.2l-0.6,0.1l-0.6,0l-1.2-0.1l-1-0.4
	l-0.9-0.6L27,241l-0.5-1.1l-0.3-1.3L26,237l0.1-1.5l0.4-1.3l0.6-1.1l0.8-0.9l0.9-0.7l1-0.4l1.1-0.1l0.6,0l0.5,0.1l0.5,0.2l0.5,0.2
	l0.5,0.3l0.5,0.3l0.5,0.4l0-2.1v-4.7h1V242.7z M33.9,233.1l-0.5-0.3l-0.5-0.3l-0.5-0.2l-0.5-0.1l-0.5-0.1l-0.5,0l-0.9,0.1l-0.8,0.4
	l-0.7,0.6l-0.6,0.8l-0.5,0.9l-0.3,1.1l-0.1,1.2l0.1,1.2l0.2,1.1l0.4,0.9l0.5,0.8l0.7,0.6l0.8,0.4l1,0.1l0.5,0l0.5-0.1l0.5-0.2
	l0.5-0.3l0.5-0.3l0.5-0.4l0.5-0.5v-6.8L33.9,233.1z M41,228l-0.1,0.2l-0.1,0.2l-0.1,0.1l-0.2,0.1l-0.2,0.1l-0.2,0l-0.2,0l-0.2-0.1
	l-0.2-0.1l-0.1-0.1l-0.1-0.2l-0.1-0.2l0-0.2l0-0.2l0.1-0.2l0.1-0.2l0.1-0.1l0.2-0.1l0.2-0.1l0.2,0l0.2,0l0.2,0.1l0.2,0.1l0.1,0.1
	l0.1,0.2l0.1,0.2l0,0.2L41,228z M40.5,242.7h-1v-11.2h1V242.7z M59.8,242.7h-1.1v-7.1l0-1l-0.1-0.8l-0.3-0.6l-0.4-0.5l-0.5-0.4
	l-0.6-0.2l-0.7-0.1l-0.5,0l-0.5,0.1l-0.5,0.2l-0.5,0.3l-0.5,0.4l-0.5,0.5l-0.5,0.6v8.5h-1v-7.1l0-1l-0.2-0.8l-0.3-0.6l-0.4-0.5
	l-0.5-0.4l-0.6-0.2l-0.7-0.1l-0.4,0l-0.5,0.1l-0.5,0.2l-0.5,0.3l-0.5,0.4l-0.5,0.5l-0.5,0.6v8.5h-1v-11.2h0.9l0.1,1.7h0.1l0.5-0.5
	l0.5-0.4l0.5-0.4l0.5-0.3l0.5-0.2l0.5-0.1l0.5-0.1l0.7,0.1l0.6,0.2l0.5,0.3l0.4,0.3l0.4,0.4l0.3,0.5l0.2,0.6l0.6-0.6l0.5-0.5
	l0.5-0.4l0.5-0.3l0.5-0.3l0.5-0.2l0.6-0.1l0.9,0.1l0.8,0.3l0.6,0.4l0.5,0.6l0.3,0.8l0.2,1l0.1,1.2V242.7z"/>
<path class="st1" d="M32.6,281.8l-0.4,1.4l-0.6,1.1l-0.8,0.9l-0.9,0.7l-1,0.4l-1.1,0.1l-0.5,0l-0.5-0.1l-0.5-0.2l-0.5-0.2l-0.5-0.3
	l-0.5-0.3l-0.5-0.4h0l-0.1,1.1h-0.9V269h1v5l0,2.2l0.5-0.4l0.5-0.4l0.6-0.3l0.6-0.3l0.6-0.2l0.6-0.1l0.6,0l1.2,0.1l1,0.4l0.8,0.6
	l0.6,0.9l0.5,1.1l0.3,1.3l0.1,1.4L32.6,281.8z M31.5,279.1l-0.2-1l-0.3-0.9l-0.5-0.7l-0.7-0.6l-0.8-0.4l-1-0.1l-0.5,0l-0.5,0.1
	l-0.5,0.2L26,276l-0.5,0.3l-0.6,0.4l-0.6,0.5v6.8l0.5,0.4l0.5,0.3l0.5,0.3l0.5,0.2l0.5,0.1l0.4,0.1l0.4,0l0.9-0.1l0.8-0.4l0.7-0.6
	l0.6-0.8l0.5-1l0.3-1.1l0.1-1.3L31.5,279.1z M43,286.1h-0.9l-0.1-1.4h-0.1l-0.5,0.4l-0.5,0.4l-0.6,0.3l-0.6,0.3l-0.6,0.2l-0.6,0.1
	l-0.6,0l-0.7-0.1l-0.7-0.2l-0.6-0.3l-0.5-0.4l-0.4-0.6l-0.2-0.7l-0.1-0.9l0.1-1l0.4-0.8l0.7-0.7l1-0.6l1.3-0.5l1.7-0.4l2-0.3l0-0.7
	l-0.1-0.7l-0.2-0.7l-0.3-0.6l-0.5-0.5l-0.7-0.3l-0.9-0.1l-0.6,0l-0.6,0.1l-0.6,0.2l-0.5,0.2l-0.5,0.2l-0.4,0.3l-0.4,0.3l-0.5-0.8
	l0.4-0.3l0.5-0.3l0.6-0.3l0.6-0.3l0.7-0.2l0.7-0.1l0.8-0.1l1,0.1l0.8,0.3l0.7,0.5l0.5,0.7l0.3,0.8l0.2,0.9l0.1,1V286.1z M40.1,280.1
	l-1.5,0.3l-1.1,0.4l-0.8,0.5l-0.6,0.6l-0.3,0.6l-0.1,0.7l0.1,0.6l0.2,0.5l0.3,0.4l0.4,0.3l0.4,0.2l0.5,0.1l0.5,0l0.5,0l0.5-0.1
	l0.5-0.2l0.5-0.3l0.5-0.3l0.6-0.4l0.6-0.5v-3.9L40.1,280.1z M53.2,283.9l-0.2,0.7l-0.4,0.6l-0.6,0.5l-0.7,0.4l-0.8,0.2l-1,0.1
	l-0.7,0l-0.7-0.1l-0.6-0.2l-0.6-0.2l-0.6-0.3l-0.5-0.3l-0.5-0.4l0.6-0.8l0.4,0.3l0.4,0.3l0.5,0.3l0.5,0.2l0.5,0.2l0.6,0.1l0.7,0
	l0.7-0.1l0.6-0.2l0.5-0.3l0.4-0.4l0.3-0.4l0.2-0.5l0.1-0.5l-0.1-0.6l-0.2-0.5l-0.4-0.4l-0.5-0.3l-0.5-0.3L50,281l-0.6-0.2l-0.7-0.3
	l-0.7-0.3l-0.7-0.4l-0.6-0.4l-0.5-0.5l-0.3-0.6l-0.1-0.8l0.1-0.7l0.2-0.6l0.4-0.6l0.5-0.5l0.7-0.4l0.8-0.2l0.9-0.1l0.5,0l0.5,0.1
	l0.5,0.1l0.5,0.2l0.4,0.2l0.4,0.3l0.4,0.3l-0.6,0.7l-0.3-0.2l-0.3-0.2l-0.4-0.2l-0.4-0.2l-0.4-0.1l-0.4-0.1l-0.5,0l-0.7,0.1
	l-0.6,0.2l-0.5,0.3l-0.4,0.3l-0.3,0.4L47,277l0,0.4l0.1,0.5l0.2,0.4l0.3,0.4L48,279l0.5,0.3l0.5,0.2l0.6,0.2l0.8,0.3l0.7,0.3
	l0.7,0.4l0.6,0.4l0.5,0.6l0.3,0.7l0.1,0.9L53.2,283.9z M64.4,279.8l0,0.1l0,0.1l0,0.1l0,0.1l0,0.1l0,0.1h-8.2l0.1,1.2l0.3,1.1
	l0.5,0.9l0.6,0.8l0.8,0.6l0.9,0.4l1,0.1l0.5,0l0.5-0.1l0.5-0.1l0.4-0.2l0.4-0.2l0.4-0.2l0.4-0.3l0.4,0.8l-0.4,0.2l-0.4,0.2l-0.4,0.2
	l-0.5,0.2l-0.5,0.1l-0.6,0.1l-0.7,0l-1.2-0.1l-1.1-0.4l-1-0.6l-0.8-0.9l-0.6-1.1l-0.4-1.3l-0.1-1.5l0.1-1.5l0.4-1.3l0.6-1.1l0.8-0.9
	L58,275l1-0.4l1.1-0.1l1.1,0.1l1,0.3l0.8,0.6l0.6,0.8l0.5,1l0.3,1.2l0.1,1.3V279.8z M63.3,278.5l-0.2-1l-0.4-0.8l-0.5-0.6l-0.6-0.4
	l-0.7-0.3l-0.8-0.1l-0.8,0.1l-0.8,0.3l-0.7,0.5l-0.6,0.6l-0.5,0.8l-0.3,1l-0.2,1.1h7.2L63.3,278.5z"/>
<path class="st1" d="M28.9,328.6l-0.5,0.3l-0.5,0.3l-0.5,0.2l-0.5,0.2l-0.6,0.1l-0.6,0l-1.2-0.1l-1.1-0.4l-1-0.6l-0.8-0.9l-0.6-1.1
	l-0.4-1.3l-0.1-1.5l0.1-1.5l0.4-1.3l0.6-1.1l0.8-0.9l1-0.6l1.1-0.4l1.2-0.1l0.6,0l0.6,0.1l0.5,0.2l0.5,0.2l0.4,0.3l0.4,0.3l0.3,0.3
	l-0.6,0.7l-0.3-0.3l-0.3-0.3l-0.4-0.2l-0.4-0.2l-0.4-0.1l-0.4-0.1l-0.5,0l-1,0.1l-0.9,0.4l-0.8,0.6l-0.6,0.8l-0.5,0.9l-0.3,1.1
	l-0.1,1.2l0.1,1.2l0.3,1.1l0.5,0.9l0.6,0.8l0.8,0.6l0.9,0.4l1,0.1l0.5,0l0.5-0.1l0.5-0.2l0.4-0.2l0.4-0.2l0.4-0.3l0.3-0.3l0.5,0.7
	L28.9,328.6z M40.6,325.3l-0.4,1.3l-0.6,1.1l-0.8,0.9l-0.9,0.6l-1.1,0.4l-1.1,0.1l-1.1-0.1l-1.1-0.4l-0.9-0.6l-0.8-0.9l-0.6-1.1
	l-0.4-1.3l-0.1-1.5l0.1-1.5l0.4-1.3l0.6-1.1l0.8-0.9l0.9-0.6l1.1-0.4l1.1-0.1l1.1,0.1l1.1,0.4l0.9,0.6l0.8,0.9l0.6,1.1l0.4,1.3
	l0.1,1.5L40.6,325.3z M39.5,322.6l-0.3-1.1l-0.5-0.9l-0.6-0.8l-0.7-0.6l-0.9-0.4l-0.9-0.1l-0.9,0.1l-0.9,0.4l-0.7,0.6l-0.6,0.8
	l-0.5,0.9l-0.3,1.1l-0.1,1.2l0.1,1.2l0.3,1.1l0.5,0.9l0.6,0.8l0.7,0.6l0.9,0.4l0.9,0.1l0.9-0.1l0.9-0.4l0.7-0.6l0.6-0.8l0.5-0.9
	l0.3-1.1l0.1-1.2L39.5,322.6z M45.9,329.7L45.9,329.7l-0.2,0l-0.1,0l-0.1,0l-0.1,0l-0.1,0l-0.4,0l-0.3-0.1l-0.3-0.2l-0.2-0.3
	l-0.1-0.3l-0.1-0.4l0-0.5v-15.6h1v15.8l0,0.2l0,0.2l0.1,0.1l0.1,0.1l0.1,0.1l0.1,0l0.1,0h0l0,0l0,0l0.1,0l0.1,0l0.1,0l0.1,0
	L45.9,329.7L45.9,329.7z M58.4,325.3l-0.4,1.3l-0.6,1.1l-0.8,0.9l-0.9,0.6l-1.1,0.4l-1.1,0.1l-1.1-0.1l-1.1-0.4l-0.9-0.6l-0.8-0.9
	l-0.6-1.1l-0.4-1.3l-0.1-1.5l0.1-1.5l0.4-1.3l0.6-1.1l0.8-0.9l0.9-0.6l1.1-0.4l1.1-0.1l1.1,0.1l1.1,0.4l0.9,0.6l0.8,0.9L58,321
	l0.4,1.3l0.1,1.5L58.4,325.3z M57.3,322.6l-0.3-1.1l-0.5-0.9l-0.6-0.8l-0.7-0.6l-0.9-0.4l-0.9-0.1l-0.9,0.1l-0.9,0.4l-0.7,0.6
	l-0.6,0.8l-0.5,0.9l-0.3,1.1l-0.1,1.2l0.1,1.2l0.3,1.1l0.5,0.9l0.6,0.8l0.7,0.6l0.9,0.4l0.9,0.1l0.9-0.1l0.9-0.4l0.7-0.6l0.6-0.8
	l0.5-0.9l0.3-1.1l0.1-1.2L57.3,322.6z M66.8,319l-0.2-0.1l-0.1,0l-0.1,0l-0.1,0l-0.1,0l-0.2,0l-0.2,0l-0.4,0l-0.5,0.2l-0.5,0.3
	l-0.5,0.4l-0.4,0.5l-0.4,0.7l-0.4,0.8v7.7h-1v-11.2h0.9l0.1,2h0.1l0.3-0.6l0.4-0.5l0.4-0.4l0.5-0.4l0.5-0.3l0.5-0.2l0.6-0.1l0.2,0
	l0.2,0l0.2,0l0.2,0l0.2,0l0.2,0.1l0.2,0.1L66.8,319z"/>
<path class="st1" d="M133.6,231.4h0.9l0.1,2h0.1l0.3-0.6l0.4-0.5l0.4-0.4l0.5-0.4l0.5-0.3l0.5-0.2l0.6-0.1l0.2,0l0.2,0l0.2,0l0.2,0
	l0.2,0l0.2,0.1l0.2,0.1l-0.2,0.9l-0.2-0.1l-0.1,0l-0.1,0l-0.1,0l-0.1,0l-0.2,0l-0.2,0l-0.4,0l-0.5,0.2l-0.5,0.3l-0.5,0.4l-0.4,0.5
	l-0.4,0.7l-0.4,0.8v7.7h-1V231.4z M121.3,231.4h1v7.1l0,1l0.1,0.8l0.2,0.6l0.4,0.5l0.5,0.4l0.6,0.2l0.7,0.1l0.6,0l0.5-0.1l0.5-0.2
	l0.5-0.3l0.5-0.4l0.5-0.5l0.5-0.6v-8.4h1v11.2h-0.9l-0.1-1.8h0l-0.5,0.5l-0.5,0.5l-0.5,0.4l-0.5,0.3l-0.6,0.2l-0.6,0.2l-0.6,0.1
	l-0.9-0.1l-0.8-0.3l-0.6-0.4l-0.5-0.6l-0.3-0.8l-0.2-1l-0.1-1.2V231.4z M108.1,237.1l0.1-1.5l0.4-1.3l0.6-1.1l0.8-0.9l0.9-0.6
	l1.1-0.4l1.1-0.1l1.1,0.1l1.1,0.4l0.9,0.6l0.8,0.9l0.6,1.1l0.4,1.3l0.1,1.5l-0.1,1.5l-0.4,1.3l-0.6,1.1l-0.8,0.9l-0.9,0.6l-1.1,0.4
	l-1.1,0.1l-1.1-0.1l-1.1-0.4l-0.9-0.6l-0.8-0.9l-0.6-1.1l-0.4-1.3L108.1,237.1z M109.2,237.1l0.1,1.2l0.3,1.1l0.5,0.9l0.6,0.8
	l0.7,0.6l0.9,0.4l0.9,0.1l0.9-0.1l0.9-0.4l0.7-0.6l0.6-0.8l0.5-0.9l0.3-1.1l0.1-1.2l-0.1-1.2l-0.3-1.1l-0.5-0.9l-0.6-0.8l-0.7-0.6
	l-0.9-0.4l-0.9-0.1l-0.9,0.1l-0.9,0.4l-0.7,0.6l-0.6,0.8l-0.5,0.9l-0.3,1.1L109.2,237.1z M96.9,225.6h1v7.5l0.5-0.5l0.5-0.4l0.5-0.4
	l0.5-0.3l0.6-0.2l0.6-0.1l0.6-0.1l0.9,0.1l0.8,0.3l0.6,0.4l0.5,0.6l0.3,0.8l0.2,1l0.1,1.2v7.3h-1v-7.1l0-1l-0.1-0.8l-0.2-0.6
	l-0.4-0.5l-0.5-0.4l-0.6-0.2l-0.7-0.1l-0.6,0l-0.5,0.1l-0.5,0.2l-0.5,0.3l-0.5,0.4l-0.5,0.5l-0.6,0.6v8.5h-1V225.6z"/>
<path class="st1" d="M124.8,275.2h0.9l0.1,1.7h0.1l0.5-0.5l0.5-0.4l0.5-0.4l0.5-0.3l0.6-0.2l0.6-0.1l0.6-0.1l0.9,0.1l0.8,0.3
	l0.6,0.4l0.5,0.6l0.3,0.8l0.2,1l0.1,1.2v7.3h-1v-7.1l0-1l-0.1-0.8l-0.3-0.6l-0.4-0.5l-0.5-0.4l-0.6-0.2l-0.7-0.1l-0.6,0l-0.5,0.1
	l-0.5,0.2l-0.5,0.3l-0.5,0.4l-0.5,0.5l-0.6,0.6v8.5h-1V275.2z M119.1,271.5l0-0.2l0.1-0.2l0.1-0.2l0.1-0.1l0.2-0.1l0.2-0.1l0.2,0
	l0.2,0l0.2,0.1l0.2,0.1l0.1,0.1l0.1,0.2l0.1,0.2l0,0.2l0,0.2l-0.1,0.2l-0.1,0.2l-0.1,0.1l-0.2,0.1l-0.2,0.1l-0.2,0l-0.2,0l-0.2-0.1
	l-0.2-0.1l-0.1-0.1l-0.1-0.2l-0.1-0.2L119.1,271.5z M119.5,275.2h1v11.2h-1V275.2z M100.8,275.2h0.9l0.1,1.7h0.1l0.5-0.5l0.5-0.4
	l0.5-0.4l0.5-0.3l0.5-0.2l0.5-0.1l0.5-0.1l0.7,0.1l0.6,0.2l0.5,0.3l0.4,0.3l0.4,0.4l0.3,0.5l0.2,0.6l0.6-0.6l0.5-0.5l0.5-0.4
	l0.5-0.3l0.5-0.3l0.5-0.2l0.6-0.1l0.9,0.1l0.8,0.3l0.6,0.4l0.5,0.6l0.3,0.8l0.2,1l0.1,1.2v7.3h-1.1v-7.1l0-1l-0.1-0.8l-0.3-0.6
	l-0.4-0.5l-0.5-0.4l-0.6-0.2l-0.7-0.1l-0.5,0l-0.5,0.1l-0.5,0.2l-0.5,0.3l-0.5,0.4l-0.5,0.5l-0.5,0.6v8.5h-1v-7.1l0-1l-0.2-0.8
	l-0.3-0.6l-0.4-0.5l-0.5-0.4l-0.6-0.2l-0.7-0.1l-0.4,0l-0.5,0.1l-0.5,0.2l-0.5,0.3l-0.5,0.4l-0.5,0.5l-0.5,0.6v8.5h-1V275.2z"/>
<path class="st1" d="M123,323.8l0.1-1.5l0.4-1.3l0.6-1.1l0.8-0.9l1-0.6l1.1-0.4l1.2-0.1l0.6,0l0.6,0.1l0.5,0.2l0.5,0.2l0.4,0.3
	l0.4,0.3l0.3,0.3l-0.6,0.7l-0.3-0.3l-0.3-0.3l-0.4-0.2l-0.4-0.2l-0.4-0.1l-0.4-0.1l-0.5,0l-1,0.1l-0.9,0.4l-0.8,0.6l-0.6,0.8
	l-0.5,0.9l-0.3,1.1l-0.1,1.2l0.1,1.2l0.3,1.1l0.5,0.9l0.6,0.8l0.8,0.6l0.9,0.4l1,0.1l0.5,0l0.5-0.1l0.5-0.2l0.4-0.2l0.4-0.2l0.4-0.3
	l0.3-0.3l0.5,0.7l-0.4,0.4l-0.5,0.3l-0.5,0.3l-0.5,0.2l-0.5,0.2l-0.6,0.1l-0.6,0l-1.2-0.1l-1.1-0.4l-1-0.6l-0.8-0.9l-0.6-1.1
	l-0.4-1.3L123,323.8z M111.9,323.8l0.1-1.5l0.4-1.3l0.6-1.1l0.8-0.9l0.9-0.7l1-0.4l1.1-0.1l1.1,0.1l1,0.3l0.8,0.6l0.6,0.8l0.5,1
	l0.3,1.2l0.1,1.3l0,0.1l0,0.1l0,0.1l0,0.1l0,0.1l0,0.1l0,0.1H113l0.1,1.2l0.3,1.1l0.5,0.9l0.6,0.8l0.8,0.6l0.9,0.4l1,0.1l0.5,0
	l0.5-0.1l0.5-0.1l0.4-0.2l0.4-0.2l0.4-0.2l0.4-0.3l0.4,0.8l-0.4,0.2l-0.4,0.2l-0.4,0.2l-0.5,0.2l-0.5,0.1l-0.6,0.1l-0.7,0l-1.2-0.1
	l-1.1-0.4l-1-0.6l-0.8-0.9l-0.6-1.1l-0.4-1.3L111.9,323.8z M113,323.1h7.2l-0.1-1.2l-0.2-1l-0.4-0.8l-0.5-0.6l-0.6-0.4l-0.7-0.3
	l-0.8-0.1l-0.8,0.1l-0.8,0.3l-0.7,0.5l-0.6,0.6l-0.5,0.8l-0.3,1L113,323.1z M102.1,328.2l0.6-0.8l0.4,0.3l0.4,0.3l0.5,0.3l0.5,0.2
	l0.5,0.2l0.6,0.1l0.7,0l0.7-0.1l0.6-0.2l0.5-0.3l0.4-0.4l0.3-0.4l0.2-0.5l0.1-0.5l-0.1-0.6l-0.2-0.5l-0.4-0.4l-0.5-0.3l-0.5-0.3
	l-0.6-0.2l-0.6-0.2l-0.7-0.3l-0.7-0.3l-0.7-0.4l-0.6-0.4l-0.5-0.5l-0.3-0.6l-0.1-0.8l0.1-0.7l0.2-0.6l0.4-0.6l0.5-0.5l0.7-0.4
	l0.8-0.2l0.9-0.1l0.5,0l0.5,0.1l0.5,0.1l0.5,0.2l0.4,0.2l0.4,0.3l0.4,0.3l-0.6,0.7l-0.3-0.2l-0.3-0.2l-0.4-0.2l-0.4-0.2l-0.4-0.1
	l-0.4-0.1l-0.5,0l-0.7,0.1l-0.6,0.2l-0.5,0.3l-0.4,0.3l-0.3,0.4l-0.2,0.4l0,0.4l0.1,0.5l0.2,0.4l0.3,0.4l0.4,0.3l0.5,0.3l0.5,0.2
	l0.6,0.2l0.8,0.3l0.7,0.3l0.7,0.4l0.6,0.4l0.5,0.6l0.3,0.7l0.1,0.9l-0.1,0.7l-0.2,0.7l-0.4,0.6l-0.6,0.5l-0.7,0.4l-0.8,0.2l-1,0.1
	l-0.7,0l-0.7-0.1l-0.6-0.2l-0.6-0.2l-0.6-0.3l-0.5-0.3L102.1,328.2z"/>
</svg>
